<svg xmlns="http://www.w3.org/2000/svg" height="512" width="512" fill="#1b80e4" xmlns:v="https://vecta.io/nano"><path d="M17.397 166.28h106.716v328.97H17.397zm397.392 3.858l-3.396-1.078-4.328-.833c-5.662-1.139-11.875-1.946-19.148-1.946-62.211 0-101.678 45.372-114.674 62.894V166.28H166.526v328.97h106.716V315.813s80.643-112.628 114.674-29.911V495.25h106.688V273.257c0-49.708-33.975-91.127-79.815-103.119h0zm-293-101.053c0 28.909-23.373 52.337-52.195 52.337S17.398 97.993 17.398 69.085c0-28.903 23.372-52.335 52.196-52.335s52.195 23.432 52.195 52.335h0zm0 0"/></svg>